<svg width="14" height="14" viewBox="0 0 14 14" fill="none" xmlns="http://www.w3.org/2000/svg">
<path fill-rule="evenodd" clip-rule="evenodd" d="M12.0886 10.6108C11.9918 10.3215 12.0028 10.0007 12.1463 9.73174C12.7524 8.59483 12.9974 7.23858 12.7093 5.80649C12.2397 3.47316 10.3211 1.62691 7.97083 1.24658C3.98842 0.602577 0.596916 3.99466 1.24208 7.97708C1.623 10.3267 3.46867 12.2447 5.80258 12.7143C7.23525 13.0025 8.59208 12.7563 9.729 12.1502C9.99675 12.0073 10.3141 11.9962 10.6017 12.0919L10.9241 12.1994C11.1753 12.283 11.4562 12.3766 11.7234 12.4658C12.1796 12.6175 12.613 12.1835 12.4607 11.7279L12.0886 10.6108ZM6.96109 9.09725C6.53526 9.09725 6.18992 9.44259 6.18992 9.869C6.18992 10.2948 6.53526 10.6402 6.96109 10.6402C7.38692 10.6402 7.73284 10.2948 7.73284 9.869C7.73284 9.44259 7.38692 9.09725 6.96109 9.09725ZM7.66924 3.48827L7.59166 8.15902H6.33049L6.25349 3.48827H7.66924Z" fill="#EDBC40"/>
</svg>
